<svg width="512" height="512" viewBox="0 0 512 512" fill="none" xmlns="http://www.w3.org/2000/svg">
  <rect width="512" height="512" rx="110" fill="#0A0A0A"/>
  <path d="M0,512 L0,280 L280,0 L512,0 L512,120 L120,512 Z" fill="#BCA95B" opacity="0.12"/>
  <path d="M80,512 L512,80" stroke="#BCA95B" stroke-width="3" opacity="0.4"/>
  <rect x="192" y="80" width="70" height="248" rx="10" fill="#BCA95B"/>
  <path d="M262,290 L262,360 C262,422 218,446 175,436 C132,426 108,396 110,360 L110,336 L162,336 L162,358 C161,374 169,386 182,390 C197,394 212,385 212,365 L212,290 Z" fill="#BCA95B"/>
  <rect x="308" y="390" width="13" height="58" rx="3" fill="#737B86"/>
  <rect x="308" y="390" width="46" height="13" rx="3" fill="#737B86"/>
  <rect x="308" y="418" width="34" height="11" rx="3" fill="#737B86"/>
  <rect x="363" y="390" width="13" height="58" rx="3" fill="#737B86"/>
  <rect x="385" y="390" width="48" height="13" rx="3" fill="#737B86"/>
  <rect x="402" y="390" width="13" height="58" rx="3" fill="#737B86"/>
</svg>
